<svg xmlns="http://www.w3.org/2000/svg" viewBox="0 0 900 900" role="img" aria-label="Exercise demo">
  <defs>
    <radialGradient id="bg" cx="50%" cy="32%" r="70%">
      <stop offset="0%" stop-color="#2b2b2e"/>
      <stop offset="54%" stop-color="#101113"/>
      <stop offset="100%" stop-color="#050505"/>
    </radialGradient>
    <linearGradient id="metal" x1="0" x2="1">
      <stop offset="0%" stop-color="#3d3d42"/>
      <stop offset="100%" stop-color="#7d7d84"/>
    </linearGradient>
  </defs>
  <rect width="900" height="900" rx="72" fill="url(#bg)"/>
  <path d="M112 720 C244 650 336 652 450 720 C554 782 668 784 792 718" fill="none" stroke="#1f2023" stroke-width="48" stroke-linecap="round"/>
  <g fill="none" stroke-linecap="round" stroke-linejoin="round">
      <circle cx="305" cy="650" r="92" stroke="#55565c" stroke-width="28"/>
      <circle cx="595" cy="650" r="92" stroke="#55565c" stroke-width="28"/>
      <path d="M305 650 L430 506 L595 650 M430 506 H545 M545 506 L634 362" stroke="#8d8e94" stroke-width="18"/>
    </g>
  <g fill="none" stroke-linecap="round" stroke-linejoin="round">
    <circle cx="448" cy="312" r="40" fill="#d5d5d8"/>
    <path d="M442 360 L500 500" stroke="#d5d5d8" stroke-width="38"/>
    <path d="M468 410 L610 430 M468 410 L340 430" stroke="#d5d5d8" stroke-width="30"/>
    <path d="M500 500 L594 642 M500 500 L340 642" stroke="#d5d5d8" stroke-width="34"/>
    <path d="M160 760 H740" stroke="#303136" stroke-width="20"/>
  </g>
</svg>
