<svg xmlns="http://www.w3.org/2000/svg" viewBox="0 0 900 900" role="img" aria-label="Exercise demo">
  <defs>
    <radialGradient id="bg" cx="50%" cy="32%" r="70%">
      <stop offset="0%" stop-color="#2b2b2e"/>
      <stop offset="54%" stop-color="#101113"/>
      <stop offset="100%" stop-color="#050505"/>
    </radialGradient>
    <linearGradient id="metal" x1="0" x2="1">
      <stop offset="0%" stop-color="#3d3d42"/>
      <stop offset="100%" stop-color="#7d7d84"/>
    </linearGradient>
  </defs>
  <rect width="900" height="900" rx="72" fill="url(#bg)"/>
  <path d="M112 720 C244 650 336 652 450 720 C554 782 668 784 792 718" fill="none" stroke="#1f2023" stroke-width="48" stroke-linecap="round"/>
  <g fill="none" stroke-linecap="round" stroke-linejoin="round">
      <path d="M205 188 H330 V690 H205 Z" stroke="url(#metal)" stroke-width="24"/>
      <path d="M650 188 H520 V690 H650 Z" stroke="url(#metal)" stroke-width="24"/>
      <path d="M330 232 H520 M330 645 H520" stroke="#55565c" stroke-width="20"/>
      <rect x="262" y="470" width="120" height="60" rx="18" fill="#25262a" stroke="#696a70" stroke-width="12"/>
    </g>
  <g fill="none" stroke-linecap="round" stroke-linejoin="round">
    <circle cx="456" cy="312" r="40" fill="#d5d5d8"/>
    <path d="M452 360 L420 488" stroke="#d5d5d8" stroke-width="38"/>
    <path d="M438 396 L575 386 M438 396 L330 458" stroke="#d5d5d8" stroke-width="30"/>
    <path d="M420 488 L536 596 M420 488 L306 604" stroke="#d5d5d8" stroke-width="34"/>
    <path d="M160 760 H740" stroke="#303136" stroke-width="20"/>
  </g>
</svg>
