<svg xmlns="http://www.w3.org/2000/svg" viewBox="0 0 900 900" role="img" aria-label="Generated exercise demo placeholder">
  <defs>
    <linearGradient id="bg" x1="0" x2="1" y1="0" y2="1">
      <stop offset="0" stop-color="#242426"/>
      <stop offset="1" stop-color="#060607"/>
    </linearGradient>
    <filter id="shadow" x="-20%" y="-20%" width="140%" height="140%">
      <feDropShadow dx="0" dy="18" stdDeviation="20" flood-color="#000" flood-opacity=".45"/>
    </filter>
  </defs>
  <rect width="900" height="900" fill="url(#bg)"/>
  <path d="M0 700c140-38 286-50 438-36 156 14 306-2 462-48v284H0z" fill="#0b0b0c"/>
  <g opacity=".2" stroke="#e9e9ee" stroke-width="2">
    <path d="M88 704h724"/>
    <path d="M122 760h656"/>
    <path d="M178 812h544"/>
  </g>
  <g filter="url(#shadow)" fill="none" stroke-linecap="round" stroke-linejoin="round">
    <rect x="206" y="214" width="488" height="340" rx="54" fill="#151517" stroke="#3b3b40" stroke-width="12"/>
    <path d="M332 646h236" stroke="#3b3b40" stroke-width="34"/>
    <path d="M450 554v92" stroke="#3b3b40" stroke-width="32"/>
    <circle cx="450" cy="384" r="86" fill="#e9e9ee" stroke="#e9e9ee" stroke-width="8"/>
    <path d="m424 340 84 44-84 48z" fill="#050505" stroke="#050505" stroke-width="8"/>
  </g>
  <g opacity=".28" fill="#f4f4f6">
    <rect x="92" y="112" width="8" height="250" rx="4"/>
    <rect x="800" y="104" width="8" height="292" rx="4"/>
  </g>
</svg>
